<mxfile host="Electron" modified="2024-06-11T10:02:07.877Z" agent="Mozilla/5.0 (Windows NT 10.0; Win64; x64) AppleWebKit/537.36 (KHTML, like Gecko) draw.io/24.5.1 Chrome/124.0.6367.207 Electron/30.0.6 Safari/537.36" etag="OrBFF6d4VgJUlmaLzmyT" version="24.5.1" type="device">
  <diagram name="Page-1" id="yOkab8tS-ocWw1erwLBM">
    <mxGraphModel dx="1434" dy="964" grid="1" gridSize="5" guides="0" tooltips="1" connect="1" arrows="1" fold="1" page="1" pageScale="1" pageWidth="1200" pageHeight="600" math="0" shadow="0">
      <root>
        <mxCell id="0" />
        <mxCell id="1" parent="0" />
        <mxCell id="3YORw4eYY-1OEMy_Ppgu-2" value="Lane 0" style="rounded=0;whiteSpace=wrap;html=1;linecap=round;" parent="1" vertex="1">
          <mxGeometry x="20" y="20" width="80" height="40" as="geometry" />
        </mxCell>
        <mxCell id="3YORw4eYY-1OEMy_Ppgu-3" value="Lane 1" style="rounded=0;whiteSpace=wrap;html=1;linecap=round;" parent="1" vertex="1">
          <mxGeometry x="110" y="20" width="80" height="40" as="geometry" />
        </mxCell>
        <mxCell id="3YORw4eYY-1OEMy_Ppgu-4" value="Lane 2" style="rounded=0;whiteSpace=wrap;html=1;linecap=round;" parent="1" vertex="1">
          <mxGeometry x="200" y="20" width="80" height="40" as="geometry" />
        </mxCell>
        <mxCell id="3YORw4eYY-1OEMy_Ppgu-5" value="Lane 3" style="rounded=0;whiteSpace=wrap;html=1;linecap=round;" parent="1" vertex="1">
          <mxGeometry x="290" y="20" width="80" height="40" as="geometry" />
        </mxCell>
        <mxCell id="3YORw4eYY-1OEMy_Ppgu-6" value="Lane 4" style="rounded=0;whiteSpace=wrap;html=1;linecap=round;" parent="1" vertex="1">
          <mxGeometry x="380" y="20" width="80" height="40" as="geometry" />
        </mxCell>
        <mxCell id="3YORw4eYY-1OEMy_Ppgu-7" value="Lane 5" style="rounded=0;whiteSpace=wrap;html=1;linecap=round;" parent="1" vertex="1">
          <mxGeometry x="470" y="20" width="80" height="40" as="geometry" />
        </mxCell>
        <mxCell id="3YORw4eYY-1OEMy_Ppgu-8" value="Lane 6" style="rounded=0;whiteSpace=wrap;html=1;linecap=round;" parent="1" vertex="1">
          <mxGeometry x="560" y="20" width="80" height="40" as="geometry" />
        </mxCell>
        <mxCell id="3YORw4eYY-1OEMy_Ppgu-9" value="Lane 7" style="rounded=0;whiteSpace=wrap;html=1;linecap=round;" parent="1" vertex="1">
          <mxGeometry x="650" y="20" width="80" height="40" as="geometry" />
        </mxCell>
        <mxCell id="3YORw4eYY-1OEMy_Ppgu-10" value="Lane 8" style="rounded=0;whiteSpace=wrap;html=1;linecap=round;" parent="1" vertex="1">
          <mxGeometry x="740" y="20" width="80" height="40" as="geometry" />
        </mxCell>
        <mxCell id="3YORw4eYY-1OEMy_Ppgu-11" value="Lane 9" style="rounded=0;whiteSpace=wrap;html=1;linecap=round;" parent="1" vertex="1">
          <mxGeometry x="830" y="20" width="80" height="40" as="geometry" />
        </mxCell>
        <mxCell id="3YORw4eYY-1OEMy_Ppgu-12" value="Lane 10" style="rounded=0;whiteSpace=wrap;html=1;linecap=round;" parent="1" vertex="1">
          <mxGeometry x="920" y="20" width="80" height="40" as="geometry" />
        </mxCell>
        <mxCell id="3YORw4eYY-1OEMy_Ppgu-13" value="Out 0" style="rounded=0;whiteSpace=wrap;html=1;linecap=round;" parent="1" vertex="1">
          <mxGeometry x="20" y="540" width="80" height="40" as="geometry" />
        </mxCell>
        <mxCell id="3YORw4eYY-1OEMy_Ppgu-14" value="Out 1" style="rounded=0;whiteSpace=wrap;html=1;linecap=round;" parent="1" vertex="1">
          <mxGeometry x="110" y="540" width="80" height="40" as="geometry" />
        </mxCell>
        <mxCell id="3YORw4eYY-1OEMy_Ppgu-15" value="Out 2" style="rounded=0;whiteSpace=wrap;html=1;linecap=round;" parent="1" vertex="1">
          <mxGeometry x="200" y="540" width="80" height="40" as="geometry" />
        </mxCell>
        <mxCell id="3YORw4eYY-1OEMy_Ppgu-16" value="Out 3" style="rounded=0;whiteSpace=wrap;html=1;linecap=round;" parent="1" vertex="1">
          <mxGeometry x="290" y="540" width="80" height="40" as="geometry" />
        </mxCell>
        <mxCell id="3YORw4eYY-1OEMy_Ppgu-50" value="" style="endArrow=classic;html=1;rounded=0;entryX=0.5;entryY=0;entryDx=0;entryDy=0;linecap=round;exitX=0.5;exitY=1;exitDx=0;exitDy=0;" parent="1" target="3YORw4eYY-1OEMy_Ppgu-13" edge="1" source="cpLq38CD5uhasedlGBde-31">
          <mxGeometry width="50" height="50" relative="1" as="geometry">
            <mxPoint x="150" y="450" as="sourcePoint" />
            <mxPoint x="550" y="210" as="targetPoint" />
          </mxGeometry>
        </mxCell>
        <mxCell id="3YORw4eYY-1OEMy_Ppgu-55" value="" style="endArrow=classic;html=1;rounded=0;entryX=0.5;entryY=0;entryDx=0;entryDy=0;linecap=round;" parent="1" edge="1">
          <mxGeometry width="50" height="50" relative="1" as="geometry">
            <mxPoint x="240" y="450" as="sourcePoint" />
            <mxPoint x="150" y="540" as="targetPoint" />
          </mxGeometry>
        </mxCell>
        <mxCell id="3YORw4eYY-1OEMy_Ppgu-56" value="" style="endArrow=classic;html=1;rounded=0;entryX=0.5;entryY=0;entryDx=0;entryDy=0;linecap=round;" parent="1" edge="1">
          <mxGeometry width="50" height="50" relative="1" as="geometry">
            <mxPoint x="420" y="360" as="sourcePoint" />
            <mxPoint x="240" y="540" as="targetPoint" />
          </mxGeometry>
        </mxCell>
        <mxCell id="3YORw4eYY-1OEMy_Ppgu-78" value="" style="endArrow=classic;html=1;rounded=0;entryX=0.5;entryY=0;entryDx=0;entryDy=0;linecap=round;" parent="1" edge="1">
          <mxGeometry width="50" height="50" relative="1" as="geometry">
            <mxPoint x="400" y="470" as="sourcePoint" />
            <mxPoint x="330" y="540" as="targetPoint" />
          </mxGeometry>
        </mxCell>
        <mxCell id="cpLq38CD5uhasedlGBde-21" value="ADD" style="whiteSpace=wrap;html=1;aspect=fixed;linecap=round;" vertex="1" parent="1">
          <mxGeometry x="30" y="100" width="60" height="60" as="geometry" />
        </mxCell>
        <mxCell id="cpLq38CD5uhasedlGBde-22" value="" style="endArrow=classic;html=1;rounded=0;entryX=0.5;entryY=0;entryDx=0;entryDy=0;linecap=round;exitX=0.5;exitY=1;exitDx=0;exitDy=0;" edge="1" parent="1" source="3YORw4eYY-1OEMy_Ppgu-2" target="cpLq38CD5uhasedlGBde-21">
          <mxGeometry width="50" height="50" relative="1" as="geometry">
            <mxPoint x="685" y="305" as="sourcePoint" />
            <mxPoint x="425" y="305" as="targetPoint" />
          </mxGeometry>
        </mxCell>
        <mxCell id="cpLq38CD5uhasedlGBde-23" value="" style="endArrow=none;html=1;rounded=0;exitX=0.5;exitY=1;exitDx=0;exitDy=0;linecap=round;" edge="1" parent="1" source="3YORw4eYY-1OEMy_Ppgu-3">
          <mxGeometry width="50" height="50" relative="1" as="geometry">
            <mxPoint x="555" y="130" as="sourcePoint" />
            <mxPoint x="150" y="100" as="targetPoint" />
          </mxGeometry>
        </mxCell>
        <mxCell id="cpLq38CD5uhasedlGBde-24" value="" style="endArrow=none;html=1;rounded=0;linecap=round;" edge="1" parent="1">
          <mxGeometry width="50" height="50" relative="1" as="geometry">
            <mxPoint x="150" y="100" as="sourcePoint" />
            <mxPoint x="120" y="130" as="targetPoint" />
          </mxGeometry>
        </mxCell>
        <mxCell id="cpLq38CD5uhasedlGBde-25" value="" style="endArrow=classic;html=1;rounded=0;entryX=1;entryY=0.5;entryDx=0;entryDy=0;linecap=round;" edge="1" parent="1" target="cpLq38CD5uhasedlGBde-21">
          <mxGeometry width="50" height="50" relative="1" as="geometry">
            <mxPoint x="120" y="130" as="sourcePoint" />
            <mxPoint x="425" y="305" as="targetPoint" />
          </mxGeometry>
        </mxCell>
        <mxCell id="cpLq38CD5uhasedlGBde-26" value="ADD" style="whiteSpace=wrap;html=1;aspect=fixed;linecap=round;" vertex="1" parent="1">
          <mxGeometry x="570" y="100" width="60" height="60" as="geometry" />
        </mxCell>
        <mxCell id="cpLq38CD5uhasedlGBde-27" value="" style="endArrow=classic;html=1;rounded=0;entryX=0.5;entryY=0;entryDx=0;entryDy=0;linecap=round;exitX=0.5;exitY=1;exitDx=0;exitDy=0;" edge="1" parent="1">
          <mxGeometry width="50" height="50" relative="1" as="geometry">
            <mxPoint x="600" y="60" as="sourcePoint" />
            <mxPoint x="600" y="100" as="targetPoint" />
          </mxGeometry>
        </mxCell>
        <mxCell id="cpLq38CD5uhasedlGBde-28" value="" style="endArrow=none;html=1;rounded=0;exitX=0.5;exitY=1;exitDx=0;exitDy=0;linecap=round;" edge="1" parent="1">
          <mxGeometry width="50" height="50" relative="1" as="geometry">
            <mxPoint x="780" y="60" as="sourcePoint" />
            <mxPoint x="780" y="100" as="targetPoint" />
          </mxGeometry>
        </mxCell>
        <mxCell id="cpLq38CD5uhasedlGBde-29" value="" style="endArrow=none;html=1;rounded=0;linecap=round;" edge="1" parent="1">
          <mxGeometry width="50" height="50" relative="1" as="geometry">
            <mxPoint x="780" y="100" as="sourcePoint" />
            <mxPoint x="750" y="130" as="targetPoint" />
          </mxGeometry>
        </mxCell>
        <mxCell id="cpLq38CD5uhasedlGBde-30" value="" style="endArrow=classic;html=1;rounded=0;entryX=1;entryY=0.5;entryDx=0;entryDy=0;linecap=round;" edge="1" parent="1" target="cpLq38CD5uhasedlGBde-26">
          <mxGeometry width="50" height="50" relative="1" as="geometry">
            <mxPoint x="750" y="130" as="sourcePoint" />
            <mxPoint x="720" y="130" as="targetPoint" />
          </mxGeometry>
        </mxCell>
        <mxCell id="cpLq38CD5uhasedlGBde-31" value="XOR" style="rhombus;whiteSpace=wrap;html=1;linecap=round;" vertex="1" parent="1">
          <mxGeometry x="30" y="200" width="60" height="60" as="geometry" />
        </mxCell>
        <mxCell id="cpLq38CD5uhasedlGBde-32" value="" style="endArrow=classic;html=1;rounded=0;entryX=0.5;entryY=0;entryDx=0;entryDy=0;linecap=round;exitX=0.5;exitY=1;exitDx=0;exitDy=0;" edge="1" parent="1">
          <mxGeometry width="50" height="50" relative="1" as="geometry">
            <mxPoint x="60" y="160" as="sourcePoint" />
            <mxPoint x="60" y="200" as="targetPoint" />
          </mxGeometry>
        </mxCell>
        <mxCell id="cpLq38CD5uhasedlGBde-39" value="" style="endArrow=none;html=1;rounded=0;exitX=0.5;exitY=1;exitDx=0;exitDy=0;linecap=round;" edge="1" parent="1">
          <mxGeometry width="50" height="50" relative="1" as="geometry">
            <mxPoint x="600" y="160" as="sourcePoint" />
            <mxPoint x="600" y="200" as="targetPoint" />
          </mxGeometry>
        </mxCell>
        <mxCell id="cpLq38CD5uhasedlGBde-40" value="" style="endArrow=none;html=1;rounded=0;linecap=round;" edge="1" parent="1">
          <mxGeometry width="50" height="50" relative="1" as="geometry">
            <mxPoint x="600" y="200" as="sourcePoint" />
            <mxPoint x="570" y="230" as="targetPoint" />
          </mxGeometry>
        </mxCell>
        <mxCell id="cpLq38CD5uhasedlGBde-41" value="" style="endArrow=classic;html=1;rounded=0;entryX=1;entryY=0.5;entryDx=0;entryDy=0;linecap=round;" edge="1" parent="1" target="cpLq38CD5uhasedlGBde-31">
          <mxGeometry width="50" height="50" relative="1" as="geometry">
            <mxPoint x="570" y="230" as="sourcePoint" />
            <mxPoint x="540" y="230" as="targetPoint" />
          </mxGeometry>
        </mxCell>
        <mxCell id="cpLq38CD5uhasedlGBde-42" value="ADD" style="whiteSpace=wrap;html=1;aspect=fixed;linecap=round;" vertex="1" parent="1">
          <mxGeometry x="210" y="100" width="60" height="60" as="geometry" />
        </mxCell>
        <mxCell id="cpLq38CD5uhasedlGBde-43" value="" style="endArrow=classic;html=1;rounded=0;entryX=0.5;entryY=0;entryDx=0;entryDy=0;linecap=round;exitX=0.5;exitY=1;exitDx=0;exitDy=0;" edge="1" parent="1" target="cpLq38CD5uhasedlGBde-42">
          <mxGeometry width="50" height="50" relative="1" as="geometry">
            <mxPoint x="240" y="60" as="sourcePoint" />
            <mxPoint x="605" y="305" as="targetPoint" />
          </mxGeometry>
        </mxCell>
        <mxCell id="cpLq38CD5uhasedlGBde-44" value="" style="endArrow=none;html=1;rounded=0;exitX=0.5;exitY=1;exitDx=0;exitDy=0;linecap=round;" edge="1" parent="1">
          <mxGeometry width="50" height="50" relative="1" as="geometry">
            <mxPoint x="330" y="60" as="sourcePoint" />
            <mxPoint x="330" y="100" as="targetPoint" />
          </mxGeometry>
        </mxCell>
        <mxCell id="cpLq38CD5uhasedlGBde-45" value="" style="endArrow=none;html=1;rounded=0;linecap=round;" edge="1" parent="1">
          <mxGeometry width="50" height="50" relative="1" as="geometry">
            <mxPoint x="330" y="100" as="sourcePoint" />
            <mxPoint x="300" y="130" as="targetPoint" />
          </mxGeometry>
        </mxCell>
        <mxCell id="cpLq38CD5uhasedlGBde-46" value="" style="endArrow=classic;html=1;rounded=0;entryX=1;entryY=0.5;entryDx=0;entryDy=0;linecap=round;" edge="1" parent="1" target="cpLq38CD5uhasedlGBde-42">
          <mxGeometry width="50" height="50" relative="1" as="geometry">
            <mxPoint x="300" y="130" as="sourcePoint" />
            <mxPoint x="605" y="305" as="targetPoint" />
          </mxGeometry>
        </mxCell>
        <mxCell id="cpLq38CD5uhasedlGBde-47" value="XOR" style="rhombus;whiteSpace=wrap;html=1;linecap=round;" vertex="1" parent="1">
          <mxGeometry x="210" y="270" width="60" height="60" as="geometry" />
        </mxCell>
        <mxCell id="cpLq38CD5uhasedlGBde-48" value="" style="endArrow=classic;html=1;rounded=0;entryX=0.5;entryY=0;entryDx=0;entryDy=0;linecap=round;exitX=0.5;exitY=1;exitDx=0;exitDy=0;" edge="1" parent="1" source="cpLq38CD5uhasedlGBde-42" target="cpLq38CD5uhasedlGBde-47">
          <mxGeometry width="50" height="50" relative="1" as="geometry">
            <mxPoint x="685" y="305" as="sourcePoint" />
            <mxPoint x="425" y="305" as="targetPoint" />
          </mxGeometry>
        </mxCell>
        <mxCell id="cpLq38CD5uhasedlGBde-49" value="" style="endArrow=none;html=1;rounded=0;exitX=0.5;exitY=1;exitDx=0;exitDy=0;linecap=round;" edge="1" parent="1" source="cpLq38CD5uhasedlGBde-47">
          <mxGeometry width="50" height="50" relative="1" as="geometry">
            <mxPoint x="555" y="130" as="sourcePoint" />
            <mxPoint x="240" y="450" as="targetPoint" />
          </mxGeometry>
        </mxCell>
        <mxCell id="cpLq38CD5uhasedlGBde-50" value="" style="endArrow=none;html=1;rounded=0;exitX=0.5;exitY=1;exitDx=0;exitDy=0;linecap=round;" edge="1" parent="1">
          <mxGeometry width="50" height="50" relative="1" as="geometry">
            <mxPoint x="870" y="60" as="sourcePoint" />
            <mxPoint x="870" y="100" as="targetPoint" />
          </mxGeometry>
        </mxCell>
        <mxCell id="cpLq38CD5uhasedlGBde-51" value="" style="endArrow=none;html=1;rounded=0;linecap=round;" edge="1" parent="1">
          <mxGeometry width="50" height="50" relative="1" as="geometry">
            <mxPoint x="870" y="100" as="sourcePoint" />
            <mxPoint x="670" y="300" as="targetPoint" />
          </mxGeometry>
        </mxCell>
        <mxCell id="cpLq38CD5uhasedlGBde-52" value="" style="endArrow=classic;html=1;rounded=0;entryX=1;entryY=0.5;entryDx=0;entryDy=0;linecap=round;" edge="1" parent="1" target="cpLq38CD5uhasedlGBde-47">
          <mxGeometry width="50" height="50" relative="1" as="geometry">
            <mxPoint x="670" y="300" as="sourcePoint" />
            <mxPoint x="640" y="300" as="targetPoint" />
          </mxGeometry>
        </mxCell>
        <mxCell id="cpLq38CD5uhasedlGBde-53" value="ADD" style="whiteSpace=wrap;html=1;aspect=fixed;linecap=round;" vertex="1" parent="1">
          <mxGeometry x="390" y="100" width="60" height="60" as="geometry" />
        </mxCell>
        <mxCell id="cpLq38CD5uhasedlGBde-54" value="" style="endArrow=classic;html=1;rounded=0;entryX=0.5;entryY=0;entryDx=0;entryDy=0;linecap=round;exitX=0.5;exitY=1;exitDx=0;exitDy=0;" edge="1" parent="1" target="cpLq38CD5uhasedlGBde-53">
          <mxGeometry width="50" height="50" relative="1" as="geometry">
            <mxPoint x="420" y="60" as="sourcePoint" />
            <mxPoint x="785" y="305" as="targetPoint" />
          </mxGeometry>
        </mxCell>
        <mxCell id="cpLq38CD5uhasedlGBde-55" value="" style="endArrow=none;html=1;rounded=0;exitX=0.5;exitY=1;exitDx=0;exitDy=0;linecap=round;" edge="1" parent="1">
          <mxGeometry width="50" height="50" relative="1" as="geometry">
            <mxPoint x="510" y="60" as="sourcePoint" />
            <mxPoint x="510" y="100" as="targetPoint" />
          </mxGeometry>
        </mxCell>
        <mxCell id="cpLq38CD5uhasedlGBde-56" value="" style="endArrow=none;html=1;rounded=0;linecap=round;" edge="1" parent="1">
          <mxGeometry width="50" height="50" relative="1" as="geometry">
            <mxPoint x="510" y="100" as="sourcePoint" />
            <mxPoint x="480" y="130" as="targetPoint" />
          </mxGeometry>
        </mxCell>
        <mxCell id="cpLq38CD5uhasedlGBde-57" value="" style="endArrow=classic;html=1;rounded=0;entryX=1;entryY=0.5;entryDx=0;entryDy=0;linecap=round;" edge="1" parent="1" target="cpLq38CD5uhasedlGBde-53">
          <mxGeometry width="50" height="50" relative="1" as="geometry">
            <mxPoint x="480" y="130" as="sourcePoint" />
            <mxPoint x="785" y="305" as="targetPoint" />
          </mxGeometry>
        </mxCell>
        <mxCell id="cpLq38CD5uhasedlGBde-58" value="" style="endArrow=none;html=1;rounded=0;exitX=0.5;exitY=1;exitDx=0;exitDy=0;linecap=round;" edge="1" parent="1" source="cpLq38CD5uhasedlGBde-53">
          <mxGeometry width="50" height="50" relative="1" as="geometry">
            <mxPoint x="555" y="130" as="sourcePoint" />
            <mxPoint x="420" y="360" as="targetPoint" />
          </mxGeometry>
        </mxCell>
        <mxCell id="cpLq38CD5uhasedlGBde-59" value="ADD" style="whiteSpace=wrap;html=1;aspect=fixed;linecap=round;" vertex="1" parent="1">
          <mxGeometry x="660" y="340" width="60" height="60" as="geometry" />
        </mxCell>
        <mxCell id="cpLq38CD5uhasedlGBde-60" value="" style="endArrow=classic;html=1;rounded=0;entryX=0.5;entryY=0;entryDx=0;entryDy=0;linecap=round;exitX=0.5;exitY=1;exitDx=0;exitDy=0;" edge="1" parent="1" source="3YORw4eYY-1OEMy_Ppgu-9" target="cpLq38CD5uhasedlGBde-59">
          <mxGeometry width="50" height="50" relative="1" as="geometry">
            <mxPoint x="685" y="305" as="sourcePoint" />
            <mxPoint x="425" y="305" as="targetPoint" />
          </mxGeometry>
        </mxCell>
        <mxCell id="cpLq38CD5uhasedlGBde-61" value="" style="endArrow=none;html=1;rounded=0;exitX=0.5;exitY=1;exitDx=0;exitDy=0;linecap=round;" edge="1" parent="1">
          <mxGeometry width="50" height="50" relative="1" as="geometry">
            <mxPoint x="690" y="400" as="sourcePoint" />
            <mxPoint x="690" y="440" as="targetPoint" />
          </mxGeometry>
        </mxCell>
        <mxCell id="cpLq38CD5uhasedlGBde-62" value="" style="endArrow=none;html=1;rounded=0;linecap=round;" edge="1" parent="1">
          <mxGeometry width="50" height="50" relative="1" as="geometry">
            <mxPoint x="690" y="440" as="sourcePoint" />
            <mxPoint x="660" y="470" as="targetPoint" />
          </mxGeometry>
        </mxCell>
        <mxCell id="cpLq38CD5uhasedlGBde-63" value="" style="endArrow=none;html=1;rounded=0;linecap=round;" edge="1" parent="1">
          <mxGeometry width="50" height="50" relative="1" as="geometry">
            <mxPoint x="660" y="470" as="sourcePoint" />
            <mxPoint x="400" y="470" as="targetPoint" />
          </mxGeometry>
        </mxCell>
        <mxCell id="cpLq38CD5uhasedlGBde-64" value="" style="endArrow=classic;html=1;rounded=0;entryX=1;entryY=0.5;entryDx=0;entryDy=0;linecap=round;" edge="1" parent="1">
          <mxGeometry width="50" height="50" relative="1" as="geometry">
            <mxPoint x="760" y="370" as="sourcePoint" />
            <mxPoint x="720" y="370" as="targetPoint" />
          </mxGeometry>
        </mxCell>
        <mxCell id="cpLq38CD5uhasedlGBde-65" value="" style="endArrow=none;html=1;rounded=0;linecap=round;" edge="1" parent="1">
          <mxGeometry width="50" height="50" relative="1" as="geometry">
            <mxPoint x="760" y="370" as="sourcePoint" />
            <mxPoint x="960" y="170" as="targetPoint" />
          </mxGeometry>
        </mxCell>
        <mxCell id="cpLq38CD5uhasedlGBde-66" value="" style="endArrow=none;html=1;rounded=0;exitX=0.5;exitY=1;exitDx=0;exitDy=0;linecap=round;" edge="1" parent="1">
          <mxGeometry width="50" height="50" relative="1" as="geometry">
            <mxPoint x="960" y="60" as="sourcePoint" />
            <mxPoint x="960" y="170" as="targetPoint" />
          </mxGeometry>
        </mxCell>
      </root>
    </mxGraphModel>
  </diagram>
</mxfile>
